<svg width="40" height="40" viewBox="0 0 40 40" fill="none" xmlns="http://www.w3.org/2000/svg">
<path d="M23.2248 39.7398C23.0582 39.767 22.8909 39.792 22.7231 39.8149C22.8909 39.792 23.0582 39.767 23.2248 39.7398Z" fill="#003AD0"/>
<path d="M23.6249 39.6714C23.5452 39.6861 23.4656 39.6995 23.3859 39.7133C23.4656 39.6995 23.5452 39.6861 23.6249 39.6714Z" fill="#003AD0"/>
<path d="M22.2762 39.8706C22.0812 39.8926 21.885 39.9121 21.6882 39.9286C21.885 39.9121 22.0812 39.8926 22.2762 39.8706Z" fill="#003AD0"/>
<path d="M22.6605 39.8232C22.5668 39.8358 22.4725 39.8474 22.3785 39.8583C22.4725 39.8474 22.5668 39.8358 22.6605 39.8232Z" fill="#003AD0"/>
<path d="M24.1693 39.563C24.0991 39.5779 24.0286 39.5929 23.9581 39.6072C24.0286 39.5929 24.0991 39.5779 24.1693 39.563Z" fill="#003AD0"/>
<path d="M25.5206 39.2275C25.4638 39.2437 25.407 39.259 25.3503 39.2748C25.407 39.259 25.4638 39.2437 25.5206 39.2275Z" fill="#003AD0"/>
<path d="M25.112 39.3394C25.0504 39.3556 24.9884 39.3721 24.9265 39.3876C24.9884 39.3721 25.0504 39.3559 25.112 39.3394Z" fill="#003AD0"/>
<path d="M24.5773 39.473C24.512 39.4883 24.4461 39.5026 24.3802 39.5173C24.4461 39.5026 24.512 39.4883 24.5773 39.473Z" fill="#003AD0"/>
<path d="M21.6818 39.9292C21.5765 39.938 21.4713 39.946 21.3657 39.953C21.4713 39.946 21.5765 39.938 21.6818 39.9292Z" fill="#003AD0"/>
<path d="M40 20C40 8.95599 31.044 0 20 0C8.95599 0 0 8.95599 0 20C0 31.044 8.95599 40 20 40C20.1175 40 20.2344 39.9976 20.3516 39.9954V24.4263H16.0547V19.4186H20.3516V15.7336C20.3516 11.46 22.9605 9.13391 26.7728 9.13391C28.5983 9.13391 30.1675 9.27002 30.625 9.33075V13.7973H27.9962C25.9222 13.7973 25.5206 14.783 25.5206 16.2292V19.4186H30.4797L29.8334 24.4263H25.5206V39.2273C33.8803 36.8307 40 29.129 40 20Z" fill="#003AD0"/>
<path d="M21.3215 39.9552C21.1133 39.9686 20.9043 39.9793 20.6946 39.9863C20.9043 39.9793 21.1133 39.9686 21.3215 39.9552Z" fill="#003AD0"/>
<path d="M20.6839 39.9874C20.5734 39.9911 20.4626 39.9938 20.3519 39.9957C20.4626 39.9938 20.5734 39.9911 20.6839 39.9874Z" fill="#003AD0"/>
</svg>
